,
Brought to you by  http://www.scenetime.com/signup.php
 
 Hottest scene tracker on the net !!!   
 
No fake torrents from scenebalance 
shame on those who comment fake before downloading my torrents

    seed back for speed


 



...................................NFO:.................................................::::::::::::::Enjoy:Another:Release:From:TDP::::::::::::::

[IMG]http://img443.imageshack.us/img443/7671/shelter.png[/IMG]

TiTLE.........: Shelter.2010.BDRip.XviD.AC3-TDP
RUNTiME.......: 1h 47mn
FORMAT........: XviD
RAR COUNT.....: 122x15MB
SOURCE .......: BluRay
GENRE.........: Horror | Mystery | Thriller
AUDIO.........: English 
SUBTITLES.....: None
SAMPEL........: YES
RELEASE DATE..: 26-05-2011

IMDB : http://www.imdb.com/title/tt1179069/

Plot :
A female forensic psychiatrist discovers that all of one of her 
patient's multiple personalities are murder victims. She will 
have to find out what's happening before her time is finished.


General

Complete name                    : Shelter.2010.BDRip.XviD.AC3-TDP
Format                           : AVI
Format/Info                      : Audio Video Interleave
Format profile                   : OpenDML
File size                        : 1.69 GiB
Duration                         : 1h 52mn
Overall bit rate                 : 2 151 Kbps

Video

Format                           : MPEG-4 Visual
Format profile                   : Advanced Simple@L5
Format settings, BVOP            : 2
Format settings, QPel            : No
Format settings, GMC             : No warppoints
Format settings, Matrix          : Custom
Codec ID                         : XVID
Codec ID/Hint                    : XviD
Duration                         : 1h 52mn
Bit rate                         : 1 693 Kbps
Width                            : 720 pixels
Height                           : 304 pixels
Display aspect ratio             : 2.35:1
Frame rate                       : 23.976 fps
Color space                      : YUV
Chroma subsampling               : 4:2:0
Bit depth                        : 8 bits
Scan type                        : Progressive
Compression mode                 : Lossy
Bits/(Pixel*Frame)               : 0.323
Stream size                      : 1.33 GiB (79%)
Writing library                  : XviD 58

Audio

Format                           : AC-3
Format/Info                      : Audio Coding 3
Mode extension                   : CM (complete main)
Codec ID                         : 2000
Duration                         : 1h 52mn
Bit rate mode                    : Constant
Bit rate                         : 448 Kbps
Channel(s)                       : 6 channels
Channel positions                : Front: L C R, Side: L R, LFE
Sampling rate                    : 48.0 KHz
Bit depth                        : 16 bits
Compression mode                 : Lossy
Stream size                      : 361 MiB (21%)
Alignment                        : Split accross interleaves
Interleave, duration             : 42 ms (1.00 video frame)




GREETS:

IMAGiNE,FLAWL3SS,ViSiON,FUSiON,Rx,CM8,SecretMyth,BirdFlu,ELEKTRI4KA,Serenity,INK,SUBLIME
And to all the other p2p grps past and present

Looking for : SYNCERS, CAMMERS, SEED/RiPBOXES for group use
CAPPERS, SiLVER SUPPLiERS, and R1-R2-R4 PRE-RETAiL SOURCE SUPPLIERS!
Always looking for CAM+LiNE+SCR+DVDSCR+BRSCR+RUS DVD+PRERETAIL BR & DVD
If you'd like to help, feel free to contact us at thedanishpirates@gmail.com